<mxfile host="app.diagrams.net" modified="2023-10-11T10:37:47.300Z" agent="Mozilla/5.0 (Windows NT 10.0; Win64; x64) AppleWebKit/537.36 (KHTML, like Gecko) Chrome/116.0.0.0 Safari/537.36 OPR/102.0.0.0" version="22.0.4" etag="Lhpw1lozJayadQP8KY_Z" type="github">
  <diagram name="Page-1" id="4w7-8e-Wad6WFaoJNXIb">
    <mxGraphModel>
      <root>
        <mxCell id="0" />
        <mxCell id="1" parent="0" />
      </root>
    </mxGraphModel>
  </diagram>
</mxfile>
